<svg width="121" height="120" viewBox="0 0 121 120" fill="none" xmlns="http://www.w3.org/2000/svg">
<path d="M50.8226 94.8387V1.93549H27.5968V94.8387V98.7097V118.065H93.4033V94.8387H50.8226Z" fill="#F7DEA6"/>
<path d="M52.758 92.9032V0H25.6613V120H95.3387V92.9032H52.758ZM48.8871 3.87097V94.0374L35.2013 107.723L37.938 110.46L51.6238 96.7742H91.4677V104.516H52.758V116.129H32.269L34.7716 113.626L32.0348 110.89L29.5322 113.392V98.7097H43.0806V94.8387H29.5322V90.9677H35.3387V87.0968H29.5322V83.2258H43.0806V79.3548H29.5322V75.4839H35.3387V71.6129H29.5322V67.7419H43.0806V63.871H29.5322V60H35.3387V56.129H29.5322V52.2581H43.0806V48.3871H29.5322V44.5161H35.3387V40.6452H29.5322V36.7742H43.0806V32.9032H29.5322V29.0323H35.3387V25.1613H29.5322V3.87097H48.8871ZM64.3709 108.387H68.2419V116.129H64.3709V108.387ZM60.5 116.129H56.629V108.387H60.5V116.129ZM72.1129 108.387H75.9838V116.129H72.1129V108.387ZM79.8548 108.387H83.7258V116.129H79.8548V108.387ZM87.5967 116.129V108.387H91.4677V116.129H87.5967Z" fill="#333333"/>
<path d="M39.2097 19.3548C42.4109 19.3548 45.0161 16.7497 45.0161 13.5484C45.0161 10.3471 42.4109 7.74194 39.2097 7.74194C36.0084 7.74194 33.4032 10.3471 33.4032 13.5484C33.4032 16.7497 36.0084 19.3548 39.2097 19.3548ZM39.2097 11.6129C40.278 11.6129 41.1451 12.48 41.1451 13.5484C41.1451 14.6168 40.278 15.4839 39.2097 15.4839C38.1413 15.4839 37.2742 14.6168 37.2742 13.5484C37.2742 12.48 38.1413 11.6129 39.2097 11.6129Z" fill="#333333"/>
</svg>
