<svg width="121" height="120" viewBox="0 0 121 120" fill="none" xmlns="http://www.w3.org/2000/svg">
<g clip-path="url(#clip0)">
<path d="M25.6613 46.4516C25.6613 58.2101 35.1931 67.742 46.9516 67.742V25.1613C35.1931 25.1613 25.6613 34.6932 25.6613 46.4516Z" fill="#A8DCEC"/>
<path d="M112.758 65.8065H70.1774V46.4517H112.758V65.8065Z" fill="#F9BDBD"/>
<path d="M105.016 32.9033H74.0483V25.1613H105.016V32.9033Z" fill="#F7DEA6"/>
<path d="M114.694 38.7097H112.758V15.4839H19.8548V0H10.1774C4.84161 0 0.5 4.34161 0.5 9.67742V83.2258C0.5 88.5616 4.84161 92.9032 10.1774 92.9032H62.4355V114.194C62.4355 117.394 65.041 120 68.2419 120H114.694C117.894 120 120.5 117.394 120.5 114.194V44.5161C120.5 41.3152 117.894 38.7097 114.694 38.7097ZM4.37097 9.67742C4.37097 6.4765 6.9765 3.87097 10.1774 3.87097H15.9839V73.5484H10.1774C8 73.5484 5.98891 74.2723 4.37097 75.4876V9.67742ZM10.1774 89.0323C6.9765 89.0323 4.37097 86.4267 4.37097 83.2258C4.37097 80.0249 6.9765 77.4193 10.1774 77.4193H19.8548V19.3548H108.887V38.7097H68.842C65.592 29.5218 56.8114 23.2258 46.9516 23.2258C34.1442 23.2258 23.7258 33.6442 23.7258 46.4516C23.7258 59.2591 34.1442 69.6774 46.9516 69.6774C52.7193 69.6774 58.2158 67.5113 62.4355 63.7377V89.0323H10.1774ZM62.4355 44.5161H48.8871V27.2055C56.182 27.9426 62.5035 32.787 65.0798 39.6585C63.4902 40.6952 62.4355 42.4824 62.4355 44.5161ZM45.0161 65.7082C35.2499 64.7338 27.5968 56.4693 27.5968 46.4516C27.5968 36.434 35.2499 28.1694 45.0161 27.1951V65.7082ZM48.8871 48.3871H62.4355V58.022C59.176 62.3749 54.2522 65.1468 48.8871 65.6883V48.3871ZM116.629 114.194C116.629 115.26 115.76 116.129 114.694 116.129H68.2419C67.1759 116.129 66.3064 115.26 66.3064 114.194V44.5161C66.3064 43.4501 67.1759 42.5806 68.2419 42.5806H114.694C115.76 42.5806 116.629 43.4501 116.629 44.5161V114.194Z" fill="black"/>
<path d="M101.145 112.258H112.758V100.645H101.145V112.258ZM105.016 104.516H108.887V108.387H105.016V104.516Z" fill="black"/>
<path d="M85.6613 112.258H97.2742V100.645H85.6613V112.258ZM89.5322 104.516H93.4032V108.387H89.5322V104.516Z" fill="black"/>
<path d="M70.1774 112.258H81.7903V100.645H70.1774V112.258ZM74.0483 104.516H77.9193V108.387H74.0483V104.516Z" fill="black"/>
<path d="M101.145 96.7742H112.758V85.1613H101.145V96.7742ZM105.016 89.0322H108.887V92.9032H105.016V89.0322Z" fill="black"/>
<path d="M85.6613 96.7742H97.2742V85.1613H85.6613V96.7742ZM89.5322 89.0322H93.4032V92.9032H89.5322V89.0322Z" fill="black"/>
<path d="M70.1774 96.7742H81.7903V85.1613H70.1774V96.7742ZM74.0483 89.0322H77.9193V92.9032H74.0483V89.0322Z" fill="black"/>
<path d="M101.145 81.2903H112.758V69.6774H101.145V81.2903ZM105.016 73.5484H108.887V77.4194H105.016V73.5484Z" fill="black"/>
<path d="M85.6613 81.2903H97.2742V69.6774H85.6613V81.2903ZM89.5322 73.5484H93.4032V77.4194H89.5322V73.5484Z" fill="black"/>
<path d="M70.1774 81.2903H81.7903V69.6774H70.1774V81.2903ZM74.0483 73.5484H77.9193V77.4194H74.0483V73.5484Z" fill="black"/>
<path d="M74.0483 23.2258H105.016V27.0968H74.0483V23.2258Z" fill="black"/>
<path d="M74.0483 30.9677H105.016V34.8387H74.0483V30.9677Z" fill="black"/>
<path d="M74.0483 58.0645H108.887V61.9355H74.0483V58.0645Z" fill="black"/>
</g>
<defs>
<clipPath id="clip0">
<rect width="120" height="120" fill="white" transform="translate(0.5)"/>
</clipPath>
</defs>
</svg>
