<svg width="121" height="120" viewBox="0 0 121 120" fill="none" xmlns="http://www.w3.org/2000/svg">
<path d="M105.928 26.4387L105.016 26.2374V23.2258C105.016 11.4677 95.4839 1.93549 83.7258 1.93549C74.1413 1.93549 66.049 8.27419 63.38 16.9839L61.2277 16.5058C58.8684 15.9813 56.629 17.7774 56.629 20.1948C56.629 21.9658 57.86 23.4987 59.5884 23.8839L93.3955 31.3974L97.4871 32.3071L104.288 33.8187C106.648 34.3413 108.887 32.5452 108.887 30.1277C108.887 28.3568 107.656 26.8239 105.928 26.4387Z" fill="#A8DCEC"/>
<path d="M17.9194 56.129L21.6897 48.3871L17.9194 40.6452L26.5787 40.0065L31.4678 32.9032V1.93549H12.1129V118.065H31.4678V63.871L26.5787 56.7677L17.9194 56.129Z" fill="#F7DEA6"/>
<path d="M104.815 35.8103C104.917 35.8161 105.02 35.8432 105.121 35.8432C106.404 35.8432 107.658 35.4077 108.684 34.5852C110.044 33.4974 110.823 31.8716 110.823 30.1277C110.823 27.6426 109.255 25.5194 106.952 24.7374V23.2258C106.952 10.4187 96.5329 0 83.7258 0C74.1509 0 65.5787 5.95355 62.12 14.7213L61.6458 14.6168C59.9464 14.2374 58.1909 14.6458 56.8322 15.7374C55.4716 16.8252 54.6935 18.451 54.6935 20.1948C54.6935 22.68 56.2613 24.8032 58.5645 25.5852V32.9032C58.5645 42.7839 64.7755 51.2206 73.4909 54.569C71.8032 55.3645 70.1967 56.3419 68.7296 57.5168L65.6271 60H52.1096L51.1264 55.4052C52.1096 54.7026 52.758 53.5568 52.758 52.2581H61.2567L60.3006 49.411C59.0967 45.7935 55.9709 43.2368 52.2838 42.6968C51.6277 41.4813 50.36 40.6452 48.8871 40.6452H41.1451C39.7187 40.6452 38.4838 41.429 37.8122 42.5806H33.4032C31.2684 42.5806 29.5322 44.3168 29.5322 46.4516V50.3226C29.5322 52.4574 31.2684 54.1935 33.4032 54.1935H37.8122C38.2148 54.8826 38.8148 55.4381 39.5445 55.7729L41.24 62.5568C39.9916 63.9329 39.2096 65.7406 39.2096 67.7419C39.2096 71.0961 41.3658 73.9297 44.3542 75.0039L46.3922 83.16C46.698 84.389 47.4316 85.409 48.4013 86.1077C47.4606 87.9 46.9516 89.88 46.9516 91.9355V108.927L44.7761 109.653C42.6045 110.377 41.1451 112.401 41.1451 114.691C41.1451 117.619 43.5258 120 46.4542 120H70.1774V119.923C70.7716 119.865 71.3638 119.777 71.9464 119.644L94.4716 114.445L96.4768 117.455C97.5393 119.048 99.318 120 101.234 120C104.387 120 106.952 117.435 106.952 114.283V102.581C106.952 99.3793 104.346 96.7742 101.145 96.7742H95.2884C96.5174 95.1523 97.2742 93.1548 97.2742 90.9677V60H97.2451C97.1387 57.0581 95.449 54.5419 92.9987 53.2316C99.349 49.7187 103.87 43.3161 104.815 35.8103ZM83.7258 3.87097C94.398 3.87097 103.081 12.5535 103.081 23.2258V23.8239L65.958 15.5748C68.9793 8.58 75.9548 3.87097 83.7258 3.87097ZM62.4355 32.9032V26.4987L77.9193 29.94V36.7742H81.7903C82.8587 36.7742 83.7258 37.6413 83.7258 38.7097C83.7258 39.7781 82.8587 40.6452 81.7903 40.6452H77.9193V51.8671C69.0955 50.069 62.4355 42.2497 62.4355 32.9032ZM72.3858 59.6342C73.88 58.6161 75.5019 57.8071 77.2051 57.2245L72.3858 59.6342ZM44.6851 60.3774L43.6226 56.129H47.3232L48.1516 60H46.9516C46.158 60 45.4071 60.1548 44.6851 60.3774ZM52.758 48.3871V46.7981C53.7219 47.1213 54.6006 47.6497 55.2916 48.3871H52.758ZM41.1451 44.5161H48.8871L48.8909 52.2581H41.1451V44.5161ZM33.4032 46.4516H37.2742V50.3226H33.4032V46.4516ZM46.9516 63.871H70.9167L74.7877 71.6129H46.9516C44.8167 71.6129 43.0806 69.8768 43.0806 67.7419C43.0806 65.6071 44.8167 63.871 46.9516 63.871ZM56.8187 98.6284C55.429 100.848 54.6935 103.411 54.6935 106.032C54.6935 106.835 54.7767 107.619 54.9084 108.387H50.8226V91.9355C50.8226 90.1606 51.3587 88.4555 52.3593 87.0039C54.1071 86.6864 55.5548 85.5019 56.2245 83.9032C58.8606 82.831 61.9806 83.1387 64.369 84.7219V86.5432L56.8187 98.6284ZM56.3561 79.8116L55.429 75.4839H64.3709V80.3574C61.8432 79.3316 58.9942 79.1516 56.3561 79.8116ZM51.469 75.4839L52.7271 81.3503C52.7484 81.4452 52.758 81.5419 52.758 81.6368V81.9019C52.758 82.6316 52.1638 83.2258 51.4322 83.2258C50.8245 83.2258 50.2942 82.8116 50.1451 82.2213L48.4632 75.4839H51.469ZM68.2419 75.4839H78.4206L93.1438 67.3026C93.2348 67.2523 93.3142 67.1884 93.4032 67.1342V85.1613H68.2419V75.4839ZM46.4542 116.129C45.6606 116.129 45.0161 115.485 45.0161 114.691C45.0161 114.072 45.4109 113.522 46.0013 113.325L49.2006 112.258H56.18C56.9096 113.712 57.8832 115.018 59.0561 116.129H46.4542ZM103.081 102.581V114.283C103.081 115.301 102.252 116.129 101.234 116.129C100.615 116.129 100.042 115.823 99.6974 115.306L97.2742 111.674V100.645H101.145C102.214 100.645 103.081 101.512 103.081 102.581ZM79.8548 100.645H87.5967H93.4032V110.717L71.0774 115.87C70.3322 116.042 69.5696 116.129 68.6619 116.129C63.0935 116.129 58.5645 111.6 58.5645 106.032C58.5645 104.137 59.0948 102.285 60.0993 100.68L67.3787 89.0323H93.4032V90.9677C93.4032 94.169 90.798 96.7742 87.5967 96.7742H79.8548H72.1129V100.645H79.8548ZM91.2664 63.9194L78.7477 70.8735L74.7103 62.7987L87.1709 56.5664C87.7496 56.28 88.3942 56.129 89.0348 56.129H89.2458C91.5393 56.129 93.4032 57.9929 93.4032 60.2845C93.4032 61.7961 92.5845 63.1858 91.2664 63.9194ZM81.7903 52.2581V44.5161C84.9916 44.5161 87.5967 41.911 87.5967 38.7097C87.5967 35.5084 84.9916 32.9032 81.7903 32.9032V30.8013L92.9755 33.2864L93.8155 29.5065L60.0084 21.9929C59.1703 21.809 58.5645 21.0523 58.5645 20.1948C58.5645 19.6335 58.8161 19.1071 59.2535 18.7568C59.6909 18.4065 60.258 18.2729 60.8077 18.3968L105.508 28.3297C106.346 28.5135 106.952 29.2703 106.952 30.1277C106.952 30.689 106.7 31.2155 106.263 31.5658C105.825 31.9161 105.256 32.0477 104.708 31.9258L97.9071 30.4161L97.0671 34.1961L101.014 35.0729C99.9316 44.7252 91.7271 52.2581 81.7903 52.2581Z" fill="#333333"/>
<path d="M34.7638 55.6703L31.4677 60.4568L27.6451 54.9058L20.9096 54.4084L23.8438 48.3871L20.9096 42.3658L27.6451 41.8684L31.4677 36.3174L34.7638 41.1058L37.9496 38.909L33.4032 32.3013V0H10.1774V120H33.4032V64.4729L37.9516 57.8671L34.7638 55.6703ZM14.0483 116.129V3.87097H29.5322V32.3013L25.5103 38.1445L14.929 38.9245L19.5374 48.3871L14.929 57.8497L25.5103 58.6297L29.5322 64.4729V116.129H14.0483Z" fill="#333333"/>
<path d="M70.1774 30.9677H66.3064V34.8387H70.1774V30.9677Z" fill="#333333"/>
<path d="M21.7903 7.74194H17.9193V23.2258H21.7903V7.74194Z" fill="#333333"/>
<path d="M21.7903 27.0968H17.9193V30.9678H21.7903V27.0968Z" fill="#333333"/>
<path d="M25.6613 65.8065H21.7903V81.2903H25.6613V65.8065Z" fill="#333333"/>
<path d="M21.7903 100.645H17.9193V112.258H21.7903V100.645Z" fill="#333333"/>
</svg>
