<svg width="121" height="120" viewBox="0 0 121 120" fill="none" xmlns="http://www.w3.org/2000/svg">
<g clip-path="url(#clip0)">
<path d="M54.6938 21.2903H8.24207V52.2579H54.6938V21.2903Z" fill="#F9BDBD"/>
<path d="M114.693 11.6127H6.30657C3.10536 11.6127 0.5 14.2181 0.5 17.4193V89.032C0.5 92.2332 3.10536 94.8386 6.30657 94.8386H39.2096V104.516H29.532V108.387H91.4676V104.516H81.7903V94.8386H114.693C117.895 94.8386 120.5 92.2332 120.5 89.032V17.4193C120.5 14.2181 117.895 11.6127 114.693 11.6127ZM6.30657 15.4838H114.694C115.762 15.4838 116.629 16.3528 116.629 17.4193V77.4193H4.37105V17.4193C4.37105 16.3528 5.23801 15.4838 6.30657 15.4838ZM77.9193 104.516H43.0807V94.8386H77.9193V104.516ZM114.693 90.9676H6.30657C5.23801 90.9676 4.37105 90.0986 4.37105 89.032V81.2903H116.629V89.0324C116.629 90.0986 115.762 90.9676 114.693 90.9676Z" fill="#333333"/>
<path d="M68.4685 58.0644H74.0487V58.4205C71.8014 59.2216 70.1777 61.351 70.1777 63.871C70.1777 67.0722 72.783 69.6776 75.9842 69.6776C78.5042 69.6776 80.6332 68.0538 81.4348 65.8065H97.6327C98.4338 68.0538 100.563 69.6776 103.083 69.6776C106.284 69.6776 108.89 67.0722 108.89 63.871C108.89 61.351 107.266 59.222 105.019 58.4205V58.0644H110.641L112.964 34.8386H72.1128V38.7096H108.684L107.135 54.1934H71.886L68.0149 23.2258H60.4996V27.0969H64.5975L68.4685 58.0644ZM97.6302 61.9355H81.4323C80.8478 60.2963 79.5569 59.005 77.9173 58.4205V58.0644H101.143V58.4205C99.506 59.005 98.2147 60.2963 97.6302 61.9355ZM75.9838 65.8065C74.9153 65.8065 74.0483 64.9375 74.0483 63.871C74.0483 62.8045 74.9153 61.9355 75.9838 61.9355C77.0524 61.9355 77.9193 62.8045 77.9193 63.871C77.9193 64.9375 77.0524 65.8065 75.9838 65.8065ZM103.081 65.8065C102.012 65.8065 101.145 64.9375 101.145 63.871C101.145 62.8045 102.012 61.9355 103.081 61.9355C104.149 61.9355 105.016 62.8045 105.016 63.871C105.016 64.9375 104.149 65.8065 103.081 65.8065Z" fill="#333333"/>
<path d="M105.016 44.5162H74.0483V48.3873H105.016V44.5162Z" fill="#333333"/>
<path d="M54.6938 58.0645H8.24207V61.9355H54.6938V58.0645Z" fill="#333333"/>
<path d="M54.6938 67.7421H8.24207V71.6131H54.6938V67.7421Z" fill="#333333"/>
</g>
<defs>
<clipPath id="clip0">
<rect width="120" height="120" fill="white" transform="translate(0.5)"/>
</clipPath>
</defs>
</svg>
